<svg xml:space="preserve" viewBox="0 0 100 100" y="0" x="0" xmlns="http://www.w3.org/2000/svg" id="Layer_1" version="1.1" preserveAspectRatio="xMidYMid" width="200" height="200" xmlns:xlink="http://www.w3.org/1999/xlink" style="margin-top:0px;margin-right:0px;margin-bottom:0px;margin-left:0px;display:block;shape-rendering:auto;background-position-x:0%;background-position-y:0%;background-size:auto;background-origin:padding-box;background-clip:border-box;background:scroll rgba(0, 0, 0, 0) none  repeat;width:200px;height:200px;;animation:none"><g class="ldl-scale" style="transform-origin:50px 50px;transform:matrix(0.8, 0, 0, 0.8, 0, 0);;animation:none"><g class="ldl-ani"><g class="ldl-layer"><g class="ldl-ani"><g><g class="ldl-layer"><g class="ldl-ani" style="transform-origin:50px 50px;transform:matrix(1.03, 0, 0, 1.03, 0, 0);animation-duration:1s;animation-timing-function:linear;animation-delay:-0.571429s;animation-iteration-count:infinite;animation-direction:normal;animation-fill-mode:forwards;animation-play-state:paused;animation-name:animate;animation-timeline:auto;animation-range-start:normal;animation-range-end:normal;transform-box:view-box;;animation:none"><circle stroke-miterlimit="10" stroke-width="3.5" stroke="#333" fill="#f3e4c7" r="13.281" cy="49.741" cx="41.15" style="stroke-width:3.5px;fill:rgb(243, 228, 199);stroke:rgb(51, 51, 51);;animation:none"></circle></g></g>
<g class="ldl-layer"><g class="ldl-ani" style="transform-origin:50px 50px;transform:matrix(1.00929, 0, 0, 1.00929, 0, 0);animation-duration:1s;animation-timing-function:linear;animation-delay:-0.642857s;animation-iteration-count:infinite;animation-direction:normal;animation-fill-mode:forwards;animation-play-state:paused;animation-name:animate;animation-timeline:auto;animation-range-start:normal;animation-range-end:normal;transform-box:view-box;;animation:none"><path stroke-miterlimit="10" stroke-width="3.5" stroke-linejoin="round" stroke="#333" fill="#fff" d="M79.807 17.319c-.34-.5-.86-.843-1.365-1.174l-7.209-4.715c-.857-.56-1.738-1.131-2.737-1.353-.999-.222-1.838.042-2.644.673-1.605 1.257-2.87 2.885-4.249 4.387-1.749 1.904-3.906 3.468-6.298 4.446-1.297.53-2.503 1.249-3.786 1.771-1.55.63-3.398.694-5.031 1.032-1.187.246-2.385.546-3.423 1.171-1.001.603-1.808 1.483-2.498 2.425-2.445 3.338-3.522 7.455-4.548 11.463l-.009.034a13.215 13.215 0 0 1 5.479-1.193c1.27 0 2.495.189 3.658.522.303-.457.62-.905.974-1.325C47.539 33.8 56.35 28.044 56.269 33.3l-.061 3.947c-.006.368-.014.747-.164 1.083-.326.73-2.152 1.023-2.862 1.352-.685.318-1.352.576-1.992.836-1.794.728-3.364 1.468-4.44 3.566-.579 1.128-1.639 3.738-1.019 5.005.751 1.533 3.67.213 4.724-.195 1.421-.55 2.744-1.05 4.123-1.484.766-.24 1.544-.466 2.377-.654 1.327-.3 2.679-.61 3.844-1.312 2.231-1.343 3.029-3.181 4.179-5.36a122.09 122.09 0 0 1 4.115-7.196c.928-1.503 1.893-2.99 3.036-4.336 2.693-3.171 6.389-5.586 8.196-9.333.301-.616-.133-1.333-.518-1.9z" style="stroke-width:3.5px;fill:rgb(255, 255, 255);stroke:rgb(51, 51, 51);;animation:none"></path></g></g></g></g></g>
<g class="ldl-layer"><g class="ldl-ani"><g><g class="ldl-layer"><g class="ldl-ani" style="transform-origin:50px 50px;transform:matrix(0.982857, 0, 0, 0.982857, 0, 0);animation-duration:1s;animation-timing-function:linear;animation-delay:-0.714286s;animation-iteration-count:infinite;animation-direction:normal;animation-fill-mode:forwards;animation-play-state:paused;animation-name:animate;animation-timeline:auto;animation-range-start:normal;animation-range-end:normal;transform-box:view-box;;animation:none"><path stroke-miterlimit="10" fill="#f0af6b" stroke="#333" stroke-width="3.5" d="M54.851 90H26.884a3.496 3.496 0 0 1-3.496-3.496v-27.12h34.958v27.12A3.495 3.495 0 0 1 54.851 90z" style="stroke-width:3.5px;fill:rgb(240, 175, 107);stroke:rgb(51, 51, 51);;animation:none"></path></g></g>
<g class="ldl-layer"><g class="ldl-ani" style="transform-origin:50px 50px;transform:matrix(0.956722, 0, 0, 0.956722, 0, 0);animation-duration:1s;animation-timing-function:linear;animation-delay:-0.785714s;animation-iteration-count:infinite;animation-direction:normal;animation-fill-mode:forwards;animation-play-state:paused;animation-name:animate;animation-timeline:auto;animation-range-start:normal;animation-range-end:normal;transform-box:view-box;;animation:none"><path stroke-miterlimit="10" fill="#ea7c60" stroke-width="3.5" stroke="#333" d="M60.394 61.055H21.341a1.767 1.767 0 0 1-1.767-1.767v-3.09c0-.976.791-1.767 1.767-1.767h39.054c.976 0 1.767.791 1.767 1.767v3.09c0 .976-.791 1.767-1.768 1.767z" style="stroke-width:3.5px;fill:rgb(234, 124, 96);stroke:rgb(51, 51, 51);;animation:none"></path></g></g>
<g class="ldl-layer"><g class="ldl-ani"><g><g class="ldl-layer"><g class="ldl-ani" style="transform-origin:50px 50px;transform:matrix(0.926886, 0, 0, 0.926886, 0, 0);animation-duration:1s;animation-timing-function:linear;animation-delay:-0.857143s;animation-iteration-count:infinite;animation-direction:normal;animation-fill-mode:forwards;animation-play-state:paused;animation-name:animate;animation-timeline:auto;animation-range-start:normal;animation-range-end:normal;transform-box:view-box;;animation:none"><circle stroke-miterlimit="10" stroke-width="3.5" stroke="#b93a38" fill="none" r="8.979" cy="75.561" cx="40.868" style="stroke-width:3.5px;stroke:rgb(185, 58, 56);fill:none;;animation:none"></circle></g></g>
<g class="ldl-layer"><g class="ldl-ani" style="transform-origin:50px 50px;transform:matrix(0.911647, 0, 0, 0.911647, 0, 0);animation-duration:1s;animation-timing-function:linear;animation-delay:-0.928571s;animation-iteration-count:infinite;animation-direction:normal;animation-fill-mode:forwards;animation-play-state:paused;animation-name:animate;animation-timeline:auto;animation-range-start:normal;animation-range-end:normal;transform-box:view-box;;animation:none"><path d="M40.868 66.582V84.54" stroke-miterlimit="10" stroke-width="3.5" stroke="#b93a38" fill="none" style="stroke-width:3.5px;stroke:rgb(185, 58, 56);fill:none;;animation:none"></path></g></g>
<g class="ldl-layer"><g class="ldl-ani" style="transform-origin:50px 50px;transform:matrix(0.91, 0, 0, 0.91, 0, 0);animation-duration:1s;animation-timing-function:linear;animation-delay:-1s;animation-iteration-count:infinite;animation-direction:normal;animation-fill-mode:forwards;animation-play-state:paused;animation-name:animate;animation-timeline:auto;animation-range-start:normal;animation-range-end:normal;transform-box:view-box;;animation:none"><path d="M40.868 73.999l7.08 7.081" stroke-miterlimit="10" stroke-width="3.5" stroke="#b93a38" fill="none" style="stroke-width:3.5px;stroke:rgb(185, 58, 56);fill:none;;animation:none"></path></g></g></g></g></g></g></g></g>
<metadata xmlns:d="https://loading.io/stock/"></metadata></g></g>
<STYLE type="text/css">@keyframes animate { 0.00% {transform: translate(0.00px,0.00px) rotate(0.00deg) scale(0.91, 0.91) skew(0deg, 0.00deg) ;opacity: 1.00;}4.00% {transform: translate(0.00px,0.00px) rotate(0.00deg) scale(0.91, 0.91) ;}8.00% {animation-timing-function: cubic-bezier(0.69,0.60,0.35,0.27);transform: translate(0.00px,0.00px) rotate(0.00deg) scale(0.91, 0.91) ;}14.00% {transform: translate(0.00px,0.00px) rotate(0.00deg) scale(0.93, 0.93) ;}18.00% {transform: translate(0.00px,0.00px) rotate(0.00deg) scale(0.94, 0.94) ;}22.00% {animation-timing-function: cubic-bezier(0.67,0.66,0.34,0.33);transform: translate(0.00px,0.00px) rotate(0.00deg) scale(0.96, 0.96) ;}26.00% {transform: translate(0.00px,0.00px) rotate(0.00deg) scale(0.97, 0.97) ;}30.00% {transform: translate(0.00px,0.00px) rotate(0.00deg) scale(0.99, 0.99) ;}34.00% {animation-timing-function: cubic-bezier(0.65,0.71,0.32,0.38);transform: translate(0.00px,0.00px) rotate(0.00deg) scale(1.01, 1.01) ;}40.00% {animation-timing-function: cubic-bezier(0.64,0.74,0.31,0.41);transform: translate(0.00px,0.00px) rotate(0.00deg) scale(1.02, 1.02) ;}46.00% {animation-timing-function: cubic-bezier(0.60,0.91,0.23,0.63);transform: translate(0.00px,0.00px) rotate(0.00deg) scale(1.03, 1.03) ;}50.00% {transform: translate(0.00px,0.00px) rotate(0.00deg) scale(1.03, 1.03) ;}54.00% {transform: translate(0.00px,0.00px) rotate(0.00deg) scale(1.03, 1.03) ;}58.00% {animation-timing-function: cubic-bezier(0.69,0.60,0.35,0.27);transform: translate(0.00px,0.00px) rotate(0.00deg) scale(1.03, 1.03) ;}64.00% {transform: translate(0.00px,0.00px) rotate(0.00deg) scale(1.01, 1.01) ;}68.00% {transform: translate(0.00px,0.00px) rotate(0.00deg) scale(1.00, 1.00) ;}72.00% {animation-timing-function: cubic-bezier(0.67,0.66,0.34,0.33);transform: translate(0.00px,0.00px) rotate(0.00deg) scale(0.98, 0.98) ;}76.00% {animation-timing-function: cubic-bezier(0.66,0.68,0.33,0.35);transform: translate(0.00px,0.00px) rotate(0.00deg) scale(0.97, 0.97) ;}82.00% {animation-timing-function: cubic-bezier(0.65,0.71,0.32,0.38);transform: translate(0.00px,0.00px) rotate(0.00deg) scale(0.94, 0.94) ;}88.00% {animation-timing-function: cubic-bezier(0.65,0.73,0.31,0.40);transform: translate(0.00px,0.00px) rotate(0.00deg) scale(0.92, 0.92) ;}94.00% {animation-timing-function: cubic-bezier(0.63,0.80,0.28,0.48);transform: translate(0.00px,0.00px) rotate(0.00deg) scale(0.91, 0.91) ;}100.00% {animation-timing-function: cubic-bezier(0.63,0.80,0.28,0.48);transform: translate(0.00px,0.00px) rotate(0.00deg) scale(0.91, 0.91) ;} }</STYLE><!-- [ldio] generated by https://loading.io --></svg>